<svg width="150" height="40" viewBox="0 0 150 40" fill="none" xmlns="http://www.w3.org/2000/svg">
<path d="M5.256 25.928H7.896C9.384 25.928 10.608 25.464 11.568 24.536C12.528 23.608 13.008 22.264 13.008 20.504C13.008 18.744 12.528 17.4 11.568 16.472C10.608 15.528 9.392 15.056 7.92 15.056H5.256V25.928ZM8.016 29H1.944V11.984H8.04C10.52 11.984 12.536 12.744 14.088 14.264C15.656 15.784 16.44 17.864 16.44 20.504C16.44 23.128 15.656 25.2 14.088 26.72C12.52 28.24 10.496 29 8.016 29ZM27.0152 29.36C24.5672 29.36 22.5032 28.544 20.8232 26.912C19.1432 25.28 18.3032 23.144 18.3032 20.504C18.3032 17.88 19.1512 15.744 20.8472 14.096C22.5592 12.448 24.5992 11.624 26.9672 11.624C29.1432 11.624 30.8872 12.176 32.1992 13.28C33.5272 14.384 34.3832 15.712 34.7672 17.264L31.6472 18.248C31.4072 17.288 30.9032 16.48 30.1352 15.824C29.3672 15.152 28.3112 14.816 26.9672 14.816C25.5752 14.816 24.3512 15.312 23.2952 16.304C22.2552 17.296 21.7352 18.696 21.7352 20.504C21.7352 22.232 22.2472 23.6 23.2712 24.608C24.3112 25.616 25.5592 26.12 27.0152 26.12C28.3432 26.12 29.3992 25.776 30.1832 25.088C30.9832 24.4 31.5192 23.584 31.7912 22.64L34.8872 23.576C34.7112 24.264 34.4232 24.936 34.0232 25.592C33.6392 26.248 33.1352 26.864 32.5112 27.44C31.8872 28.016 31.0952 28.48 30.1352 28.832C29.1912 29.184 28.1512 29.36 27.0152 29.36ZM49.0873 16.04L46.1113 16.952C45.9993 16.344 45.6953 15.792 45.1993 15.296C44.7033 14.8 43.9753 14.552 43.0153 14.552C42.2313 14.552 41.5913 14.768 41.0953 15.2C40.5993 15.616 40.3513 16.12 40.3513 16.712C40.3513 17.752 40.9673 18.392 42.1993 18.632L44.5753 19.088C46.0793 19.376 47.2473 19.976 48.0793 20.888C48.9113 21.8 49.3273 22.872 49.3273 24.104C49.3273 25.512 48.7673 26.744 47.6473 27.8C46.5433 28.84 45.0553 29.36 43.1833 29.36C42.1113 29.36 41.1433 29.2 40.2793 28.88C39.4153 28.56 38.7193 28.136 38.1913 27.608C37.6633 27.064 37.2473 26.496 36.9433 25.904C36.6553 25.296 36.4793 24.672 36.4153 24.032L39.4873 23.216C39.5673 24.128 39.9193 24.888 40.5433 25.496C41.1833 26.104 42.0713 26.408 43.2073 26.408C44.0713 26.408 44.7433 26.216 45.2233 25.832C45.7193 25.448 45.9673 24.944 45.9673 24.32C45.9673 23.824 45.7833 23.4 45.4153 23.048C45.0633 22.68 44.5593 22.432 43.9033 22.304L41.5273 21.824C40.1513 21.536 39.0633 20.968 38.2633 20.12C37.4633 19.272 37.0633 18.216 37.0633 16.952C37.0633 15.448 37.6393 14.184 38.7913 13.16C39.9593 12.136 41.3593 11.624 42.9913 11.624C43.9673 11.624 44.8393 11.76 45.6073 12.032C46.3753 12.304 46.9913 12.672 47.4553 13.136C47.9193 13.584 48.2793 14.048 48.5353 14.528C48.7913 15.008 48.9753 15.512 49.0873 16.04ZM54.7241 33.56H51.5321V17.192H54.6281V18.632C54.9161 18.152 55.3801 17.752 56.0201 17.432C56.6601 17.096 57.4041 16.928 58.2521 16.928C59.9321 16.928 61.2601 17.504 62.2361 18.656C63.2121 19.792 63.7001 21.264 63.7001 23.072C63.7001 24.88 63.1801 26.368 62.1401 27.536C61.1161 28.704 59.7801 29.288 58.1321 29.288C56.5641 29.288 55.4281 28.808 54.7241 27.848V33.56ZM59.7161 25.544C60.2761 24.936 60.5561 24.12 60.5561 23.096C60.5561 22.072 60.2761 21.264 59.7161 20.672C59.1721 20.08 58.4761 19.784 57.6281 19.784C56.7801 19.784 56.0761 20.088 55.5161 20.696C54.9561 21.288 54.6761 22.088 54.6761 23.096C54.6761 24.104 54.9561 24.912 55.5161 25.52C56.0761 26.128 56.7801 26.432 57.6281 26.432C58.4761 26.432 59.1721 26.136 59.7161 25.544ZM69.4194 29H66.2274V17.192H69.4194V29ZM65.8434 13.328C65.8434 12.784 66.0354 12.32 66.4194 11.936C66.8034 11.536 67.2674 11.336 67.8114 11.336C68.3554 11.336 68.8194 11.528 69.2034 11.912C69.5874 12.296 69.7794 12.768 69.7794 13.328C69.7794 13.856 69.5874 14.312 69.2034 14.696C68.8194 15.08 68.3554 15.272 67.8114 15.272C67.2674 15.272 66.8034 15.08 66.4194 14.696C66.0354 14.312 65.8434 13.856 65.8434 13.328ZM80.0368 17.144V20.36C79.7168 20.296 79.3968 20.264 79.0768 20.264C78.1648 20.264 77.4288 20.528 76.8688 21.056C76.3088 21.568 76.0288 22.416 76.0288 23.6V29H72.8368V17.192H75.9328V18.944C76.5088 17.712 77.6288 17.096 79.2928 17.096C79.4688 17.096 79.7168 17.112 80.0368 17.144ZM85.4741 29H82.2821V17.192H85.4741V29ZM81.8981 13.328C81.8981 12.784 82.0901 12.32 82.4741 11.936C82.8581 11.536 83.3221 11.336 83.8661 11.336C84.4101 11.336 84.8741 11.528 85.2581 11.912C85.6421 12.296 85.8341 12.768 85.8341 13.328C85.8341 13.856 85.6421 14.312 85.2581 14.696C84.8741 15.08 84.4101 15.272 83.8661 15.272C83.3221 15.272 82.8581 15.08 82.4741 14.696C82.0901 14.312 81.8981 13.856 81.8981 13.328ZM92.8275 13.664V17.192H95.2035V20.024H92.8275V24.968C92.8275 25.464 92.9395 25.816 93.1635 26.024C93.3875 26.232 93.7395 26.336 94.2195 26.336C94.6515 26.336 94.9795 26.304 95.2035 26.24V28.88C94.7395 29.072 94.1395 29.168 93.4035 29.168C92.2515 29.168 91.3395 28.848 90.6675 28.208C89.9955 27.552 89.6595 26.656 89.6595 25.52V20.024H87.5235V17.192H88.1235C88.7155 17.192 89.1635 17.024 89.4675 16.688C89.7875 16.336 89.9475 15.88 89.9475 15.32V13.664H92.8275ZM108.981 29H98.0846V11.984H101.397V25.832H108.981V29ZM114.466 25.568C115.058 26.16 115.77 26.456 116.602 26.456C117.434 26.456 118.138 26.16 118.714 25.568C119.306 24.976 119.602 24.152 119.602 23.096C119.602 22.04 119.306 21.216 118.714 20.624C118.138 20.032 117.434 19.736 116.602 19.736C115.77 19.736 115.058 20.032 114.466 20.624C113.89 21.216 113.602 22.04 113.602 23.096C113.602 24.152 113.89 24.976 114.466 25.568ZM112.162 18.608C113.346 17.424 114.826 16.832 116.602 16.832C118.378 16.832 119.85 17.424 121.018 18.608C122.202 19.792 122.794 21.288 122.794 23.096C122.794 24.904 122.202 26.4 121.018 27.584C119.85 28.768 118.378 29.36 116.602 29.36C114.826 29.36 113.346 28.768 112.162 27.584C110.994 26.4 110.41 24.904 110.41 23.096C110.41 21.288 110.994 19.792 112.162 18.608ZM136.098 17.192L131.514 29H128.322L123.498 17.192H127.002L129.93 25.112L132.738 17.192H136.098ZM140.016 21.752H145.296C145.264 21.096 145.024 20.544 144.576 20.096C144.144 19.648 143.504 19.424 142.656 19.424C141.888 19.424 141.264 19.664 140.784 20.144C140.304 20.624 140.048 21.16 140.016 21.752ZM145.608 24.824L148.272 25.616C147.952 26.704 147.32 27.6 146.376 28.304C145.448 29.008 144.288 29.36 142.896 29.36C141.2 29.36 139.76 28.792 138.576 27.656C137.392 26.504 136.8 24.968 136.8 23.048C136.8 21.224 137.376 19.736 138.528 18.584C139.68 17.416 141.04 16.832 142.608 16.832C144.432 16.832 145.856 17.376 146.88 18.464C147.92 19.552 148.44 21.048 148.44 22.952C148.44 23.08 148.432 23.224 148.416 23.384C148.416 23.544 148.416 23.672 148.416 23.768L148.392 23.936H139.944C139.976 24.704 140.28 25.344 140.856 25.856C141.432 26.368 142.12 26.624 142.92 26.624C144.28 26.624 145.176 26.024 145.608 24.824Z" fill="#191825"/>
</svg>
